<?xml version="1.0" encoding="UTF-8" standalone="no"?>
<!-- Generator: Adobe Illustrator 20.1.0, SVG Export Plug-In . SVG Version: 6.00 Build 0)  -->

<svg
   xmlns:dc="http://purl.org/dc/elements/1.1/"
   xmlns:cc="http://creativecommons.org/ns#"
   xmlns:rdf="http://www.w3.org/1999/02/22-rdf-syntax-ns#"
   xmlns:svg="http://www.w3.org/2000/svg"
   xmlns="http://www.w3.org/2000/svg"
   xmlns:sodipodi="http://sodipodi.sourceforge.net/DTD/sodipodi-0.dtd"
   xmlns:inkscape="http://www.inkscape.org/namespaces/inkscape"
   version="1.1"
   x="0px"
   y="0px"
   viewBox="0 0 576 240"
   xml:space="preserve"
   id="svg3404"
   inkscape:version="0.48.5 r10040"
   sodipodi:docname="lava.svg"
   width="576"
   height="240"
   inkscape:export-filename="lava.png"
   inkscape:export-xdpi="90"
   inkscape:export-ydpi="90"><metadata
     id="metadata3432"><rdf:RDF><cc:Work
         rdf:about=""><dc:format>image/svg+xml</dc:format><dc:type
           rdf:resource="http://purl.org/dc/dcmitype/StillImage" /><dc:title /></cc:Work></rdf:RDF></metadata><defs
     id="defs3430" /><sodipodi:namedview
     pagecolor="#ffffff"
     bordercolor="#666666"
     borderopacity="1"
     objecttolerance="10"
     gridtolerance="10"
     guidetolerance="10"
     inkscape:pageopacity="0"
     inkscape:pageshadow="2"
     inkscape:window-width="1356"
     inkscape:window-height="747"
     id="namedview3428"
     showgrid="false"
     inkscape:snap-text-baseline="false"
     inkscape:snap-others="true"
     inkscape:snap-nodes="false"
     inkscape:snap-bbox="false"
     inkscape:snap-global="true"
     inkscape:snap-page="true"
     inkscape:zoom="5.3658131"
     inkscape:cx="432.99881"
     inkscape:cy="43.05989"
     inkscape:window-x="0"
     inkscape:window-y="0"
     inkscape:window-maximized="0"
     inkscape:current-layer="svg3404" /><style
     type="text/css"
     id="style3406">
	.st0{display:none;}
	.st1{display:inline;}
	.st2{fill:#99CC33;}
	.st3{fill:#FFFFFF;}
	.st4{fill:#343433;}
	.st5{font-family:'Roboto-Bold';}
	.st6{font-size:110.6092px;}
	.st7{font-family:'Roboto-Light';}
	.st8{font-size:68.7016px;}
	.st9{fill:#666666;}
	.st10{fill:#F4D30B;}
	.st11{fill:#0084AB;}
</style><g
     id="BG"
     class="st0"
     style="display:none" /><g
     id="g3420"
     transform="matrix(1.1521135,0,0,1.1710336,-21.34991,-22.430157)"><path
       class="st10"
       d="M 145.8,44.8 C 132.6,32 115.2,25 96.8,25 57.8,25 26,56.8 26,95.8 c 0,12.3 3.2,24.5 9.4,35.2 l 2.1,3.6 8.1,-6.3 -1.5,-2.7 c -5.1,-9 -7.8,-19.3 -7.8,-29.7 0,-33.3 27.1,-60.4 60.4,-60.4 15.5,0 30.2,5.9 41.5,16.6 l 2.3,2.1 8.4,-6.6 -3.1,-2.8 z"
       id="path3422"
       inkscape:connector-curvature="0"
       style="fill:#f4d30b" /><path
       class="st11"
       d="m 158.3,60.7 -2.1,-3.6 -8.4,6.6 1.5,2.7 c 5.1,9 7.7,19.2 7.7,29.6 0,33.3 -27.1,60.4 -60.4,60.4 -15.5,0 -30.2,-5.9 -41.4,-16.5 l -2.3,-2.1 -8.1,6.4 3,2.9 c 13.3,12.7 30.7,19.7 49,19.7 39,0 70.8,-31.8 70.8,-70.8 0,-12.5 -3.2,-24.7 -9.3,-35.3 z"
       id="path3424"
       inkscape:connector-curvature="0"
       style="fill:#0084ab" /></g><path
     inkscape:connector-curvature="0"
     id="polygon3426"
     d="m 175.77671,191.86899 -67.16822,0 0,-126.120317 -35.715516,28.92453 0,132.326797 131.340936,0 z"
     style="fill:#99cc33" /><g
     transform="scale(0.86012124,1.1626268)"
     style="font-size:190.25213623px;font-style:normal;font-variant:normal;font-weight:bold;font-stretch:normal;text-align:start;line-height:125%;letter-spacing:0px;word-spacing:0px;writing-mode:lr-tb;text-anchor:start;fill:#99cc33;fill-opacity:1;stroke:none;font-family:Sans;-inkscape-font-specification:Sans Bold"
     id="text3002"><path
       d="m 348.20672,165.0306 -52.58444,0 -10.46853,30.21693 -35.95097,0 51.3718,-138.694552 42.63951,0 51.3718,138.694552 -35.95097,0 -10.4282,-30.21693 m -45.30973,-20.78328 37.99469,0 -18.9509,-55.18055 -19.04379,55.18055"
       id="path3775"
       inkscape:connector-curvature="0"
       sodipodi:nodetypes="ccccccccccccc" /><path
       d="m 383.34541,56.552978 35.95096,0 36.78704,102.372002 36.69414,-102.372002 35.95096,0 -51.37179,138.694552 -42.63952,0 -51.37179,-138.694552"
       style=""
       id="path3777" /><path
       d="m 616.45612,165.0306 -52.55306,0 -10.46406,30.21693 -35.95097,0 51.37179,-138.694552 42.63952,0 51.37179,138.694552 -35.95096,0 -10.46405,-30.21693 m -45.27388,-20.78328 37.99469,0 -18.9509,-55.18055 -19.04379,55.18055"
       id="path3779"
       inkscape:connector-curvature="0"
       sodipodi:nodetypes="ccccccccccccc" /></g></svg>
