<?xml version="1.0" encoding="UTF-8" standalone="no"?>
<!-- Generator: Adobe Illustrator 15.0.0, SVG Export Plug-In . SVG Version: 6.00 Build 0)  -->

<svg
   xmlns:dc="http://purl.org/dc/elements/1.1/"
   xmlns:cc="http://creativecommons.org/ns#"
   xmlns:rdf="http://www.w3.org/1999/02/22-rdf-syntax-ns#"
   xmlns:svg="http://www.w3.org/2000/svg"
   xmlns="http://www.w3.org/2000/svg"
   xmlns:sodipodi="http://sodipodi.sourceforge.net/DTD/sodipodi-0.dtd"
   xmlns:inkscape="http://www.inkscape.org/namespaces/inkscape"
   version="1.1"
   id="Layer_1"
   x="0px"
   y="0px"
   width="22"
   height="22"
   viewBox="0 0 22 22"
   enable-background="new 0 0 226.77 113.39"
   xml:space="preserve"
   inkscape:version="0.48.4 r9939"
   sodipodi:docname="linaro.svg"
   inkscape:export-filename="/tmp/linaro-sprinkles.png"
   inkscape:export-xdpi="90"
   inkscape:export-ydpi="90"><metadata
     id="metadata3135"><rdf:RDF><cc:Work
         rdf:about=""><dc:format>image/svg+xml</dc:format><dc:type
           rdf:resource="http://purl.org/dc/dcmitype/StillImage" /><dc:title></dc:title></cc:Work></rdf:RDF></metadata><defs
     id="defs3133" /><sodipodi:namedview
     pagecolor="#ffffff"
     bordercolor="#666666"
     borderopacity="1"
     objecttolerance="10"
     gridtolerance="10"
     guidetolerance="10"
     inkscape:pageopacity="0"
     inkscape:pageshadow="2"
     inkscape:window-width="1366"
     inkscape:window-height="709"
     id="namedview3131"
     showgrid="false"
     inkscape:zoom="12.073011"
     inkscape:cx="25.439599"
     inkscape:cy="12.693166"
     inkscape:window-x="0"
     inkscape:window-y="27"
     inkscape:window-maximized="1"
     inkscape:current-layer="Layer_1" /><g
     id="g3081"
     transform="matrix(0.40601211,0,0,0.40601211,-6.2355564,-21.466514)"><path
       d="M 66.918,61.175 H 51.525 c -1.381,0 -2.498,1.117 -2.498,2.496 v 7.727 h 5.525 c 1.566,0 2.834,1.27 2.834,2.834 v 7.328 h 9.531 c 1.379,0 2.496,-1.117 2.496,-2.496 V 63.671 c 0.001,-1.379 -1.116,-2.496 -2.495,-2.496 z"
       id="path3103"
       inkscape:connector-curvature="0"
       style="fill:#a1cd40" /><path
       d="M 49.027,79.063 V 71.397 H 37.072 v 4.576 c 0,1.252 -1.016,2.268 -2.268,2.268 h -1.521 v 11.26 h 4.34 c 1.176,0 2.127,0.951 2.127,2.127 V 95.5 h 14.803 c 1.566,0 2.834,-1.27 2.834,-2.833 V 81.56 h -5.861 c -1.381,0 -2.499,-1.118 -2.499,-2.497 z"
       id="path3113"
       inkscape:connector-curvature="0"
       style="fill:#a683b8" /><path
       d="m 54.553,71.397 h -5.525 v 7.666 c 0,1.379 1.117,2.496 2.498,2.496 h 5.861 v -7.328 c 0,-1.564 -1.268,-2.834 -2.834,-2.834 z"
       id="path3115"
       inkscape:connector-curvature="0"
       style="fill:#927a82" /><path
       d="m 36.119,71.397 h 0.953 v -7.955 c 0,-1.252 -1.016,-2.268 -2.268,-2.268 H 22.273 c -1.252,0 -2.268,1.016 -2.268,2.268 v 2.014 h 2.701 c 0.783,0 1.418,0.635 1.418,1.418 v 5.668 c 0,0.783 -0.635,1.418 -1.418,1.418 h -2.701 v 2.014 c 0,1.252 1.016,2.268 2.268,2.268 h 11.01 v -4.01 c 0,-1.565 1.27,-2.835 2.836,-2.835 z"
       id="path3117"
       inkscape:connector-curvature="0"
       style="fill:#e2496d" /><path
       d="m 37.072,75.974 v -4.576 h -0.953 c -1.566,0 -2.836,1.27 -2.836,2.834 v 4.01 h 1.521 c 1.253,-0.001 2.268,-1.016 2.268,-2.268 z"
       id="path3119"
       inkscape:connector-curvature="0"
       style="fill:#c92b5c" /><path
       d="m 33.283,92.667 v -3.166 h -5.408 c -1.174,0 -2.125,0.951 -2.125,2.127 v 9.747 c 0,1.174 0.951,2.125 2.125,2.125 h 9.748 c 1.176,0 2.127,-0.951 2.127,-2.125 V 95.5 h -3.631 c -1.566,0 -2.836,-1.27 -2.836,-2.833 z"
       id="path3121"
       inkscape:connector-curvature="0"
       style="fill:#ea8097" /><path
       d="m 37.623,89.501 h -4.34 v 3.166 c 0,1.563 1.27,2.833 2.836,2.833 h 3.631 v -3.872 c 0,-1.176 -0.951,-2.127 -2.127,-2.127 z"
       id="path3123"
       inkscape:connector-curvature="0"
       style="fill:#c04b7d" /><path
       d="m 17.039,65.456 c -0.783,0 -1.418,0.635 -1.418,1.418 v 5.668 c 0,0.783 0.635,1.418 1.418,1.418 h 2.967 v -8.504 h -2.967 z"
       id="path3125"
       inkscape:connector-curvature="0"
       style="fill:#c9e092" /><path
       d="m 24.125,72.542 v -5.668 c 0,-0.783 -0.635,-1.418 -1.418,-1.418 h -2.701 v 8.504 h 2.701 c 0.783,0 1.418,-0.635 1.418,-1.418 z"
       id="path3127"
       inkscape:connector-curvature="0"
       style="fill:#bd8549" /><path
       d="m 41.912,67.163 h 3.908 c 0.539,0 0.977,-0.438 0.977,-0.977 v -3.908 c 0,-0.539 -0.438,-0.977 -0.977,-0.977 h -3.908 c -0.539,0 -0.977,0.438 -0.977,0.977 v 3.908 c 10e-4,0.54 0.438,0.977 0.977,0.977 z"
       id="path3129"
       inkscape:connector-curvature="0"
       style="fill:#8b63aa" /></g></svg>